<?xml version="1.0" encoding="UTF-8"?>
<!-- Generator: Adobe Illustrator 27.2.0, SVG Export Plug-In . SVG Version: 6.00 Build 0)  -->
<svg version="1.1" id="Capa_1" xmlns="http://www.w3.org/2000/svg" xmlns:xlink="http://www.w3.org/1999/xlink" x="0px" y="0px" viewBox="0 0 60 60" style="enable-background:new 0 0 60 60;" xml:space="preserve">
<style type="text/css">
	.st0{fill:#009EDB;}
</style>
<path class="st0" d="M30,0C13.4,0,0,13.4,0,30c0,16.6,13.4,30,30,30c16.6,0,30-13.4,30-30C60,13.4,46.6,0,30,0z M29.4,39.7V40  c0,5.6-4.2,8.9-9.5,8.9c-6.3,0-9.5-3.7-9.7-8.4h4.6v0.1c0.2,2.3,2.1,4,4.9,4c2.9,0,4.8-1.9,4.8-4.8v-3.2h0c-1.2,0.5-3.1,0.8-4.6,0.8  c-5.7,0-9.8-3.6-10-8.2v0V18.8h4.9v10V29c0,2.3,2.6,4.2,4.9,4.2s4.8-1.8,4.8-4.1v-0.2V18.8h4.9L29.4,39.7L29.4,39.7z M50.2,37.2  h-4.7v-1.7c-1.5,1.1-3.4,1.7-5.4,1.7c-5.1,0-9.2-4.1-9.2-9.2c0-5.1,4.1-9.2,9.2-9.2c2,0,3.8,0.6,5.4,1.7v-1.7h4.7V37.2z"/>
<path class="st0" d="M40.5,23.1c-2.7,0-4.9,2.2-4.9,4.9s2.2,4.9,4.9,4.9s4.9-2.2,4.9-4.9S43.2,23.1,40.5,23.1z"/>
<script xmlns=""/></svg>